PathFileType	3	(X/Y/Z)	D:\minhoCalibration\240510\subject2_KPNP\preferred\preferred19.trc
DataRate	CameraRate	NumFrames	NumMarkers	Units	OrigDataRate	OrigDataStartFrame	OrigNumFrames
200.0	200.0	18	10	mm	200.0	233	191	
Frame#	Time	Left_Ankle_Outer1			Left_Ankle_Inner1			Left_Knee_Outer1			Left_Knee_Inner1			Left_Wrist1			Right_Wrist1			Right_Knee_Inner1			Right_Knee_Outer1			Right_Ankle_Inner1			Right_Ankle_Outer1			
		X1	Y1	Z1	X2	Y2	Z2	X3	Y3	Z3	X4	Y4	Z4	X5	Y5	Z5	X6	Y6	Z6	X7	Y7	Z7	X8	Y8	Z8	X9	Y9	Z9	X10	Y10	Z10	
233	1.155	-721.87756	80.948486	-618.48834	-740.34448	84.461853	-562.54181	-535.13348	500.54501	-568.32812	-622.72772	482.41031	-511.95978	-643.26215	913.98083	-704.10229	-970.06824	959.64709	-788.46552	-1018.3394	452.73129	-794.55457	-1080.6598	497.86206	-862.04144	-989.93463	114.76104	-1038.923	-1067.9408	142.96219	-1096.6001
234	1.16	-720.88904	81.288994	-618.63495	-739.6825	84.855713	-562.32587	-532.80603	501.32114	-566.01526	-619.82935	483.86319	-510.32068	-640.26324	914.40686	-701.74585	-968.1181	960.64569	-781.73846	-1022.09	451.65396	-802.15436	-1084.527	499.4053	-851.85822	-990.03076	119.562	-1035.2532	-1067.9779	148.38644	-1092.9292
235	1.165	-720.67377	81.606468	-618.92133	-739.41138	85.157867	-563.53937	-530.88275	502.20538	-565.11035	-616.75031	485.08698	-509.9451	-636.78345	915.3728	-699.31073	-965.68677	961.89764	-774.79083	-1025.8496	452.48306	-791.5694	-1087.7404	501.86206	-842.1546	-989.10693	124.71625	-1031.2742	-1067.9462	154.42226	-1088.7198
236	1.17	-720.32672	81.363098	-619.7865	-739.32935	85.631752	-561.81934	-529.38721	502.58517	-565.15765	-613.45978	487.03	-508.45605	-632.88971	916.66925	-697.45514	-962.91125	963.3374	-767.62274	-1029.8433	454.5213	-780.39685	-1090.5448	505.17578	-831.25732	-989.95142	130.97064	-1026.2557	-1067.7573	162.01836	-1084.1588
237	1.175	-719.97272	80.711174	-620.49835	-739.0921	84.752533	-564.65375	-528.09015	502.50589	-566.07654	-610.03656	487.8674	-507.66229	-628.19666	918.58478	-695.56024	-959.7486	965.00189	-760.21259	-1034.6011	455.60095	-770.02637	-1095.2653	507.96695	-818.28027	-991.42706	137.08566	-1020.3395	-1068.2643	169.83728	-1078.3887
238	1.18	-719.9693	80.542946	-620.6347	-739.10114	84.506088	-564.68616	-526.61688	501.85562	-567.81085	-606.46857	487.57748	-507.24512	-624.19531	920.7066	-693.4104	-956.0979	966.71356	-752.55688	-1038.528	458.49075	-755.9566	-1099.0404	511.50888	-805.10144	-993.51868	144.22993	-1013.0235	-1069.8927	177.66232	-1071.7401
239	1.185	-719.4671	80.824043	-620.8656	-739.22974	84.70491	-564.06696	-525.07422	500.7323	-569.97437	-602.91992	486.12411	-507.21646	-619.00018	923.50031	-691.02905	-952.33142	968.71051	-745.09045	-1042.5789	461.62906	-742.09009	-1102.6133	515.32764	-791.20923	-995.02997	151.49677	-1005.7678	-1071.054	186.63181	-1063.5514
240	1.19	-719.3938	80.71833	-620.83026	-738.98724	84.456039	-564.58783	-523.96045	499.28848	-572.10522	-599.66815	484.6611	-507.49545	-613.45917	926.37598	-689.31012	-948.29834	970.97058	-737.47174	-1046.343	465.20337	-727.22473	-1105.5571	519.52478	-776.51245	-997.47174	159.15213	-997.35278	-1073.3561	195.76154	-1054.762
241	1.195	-719.10815	80.675217	-621.05597	-738.79926	84.654175	-564.79993	-522.84204	497.8801	-574.03607	-597.18726	483.51221	-507.70676	-608.61096	929.20923	-688.034	-944.09686	973.46832	-729.98444	-1049.5068	469.28067	-711.55005	-1107.9857	524.01276	-761.32159	-999.49695	167.35381	-988.27417	-1075.4744	205.60233	-1044.9976
242	1.2	-718.69995	80.459297	-621.44366	-738.6723	84.846527	-564.75903	-521.97076	496.48547	-575.57098	-595.32965	482.57581	-508.32581	-603.3653	932.19409	-686.50427	-939.74542	976.18085	-722.56024	-1052.0356	473.93091	-694.95288	-1109.9071	528.51855	-745.49292	-1002.7067	176.26414	-978.9552	-1077.8842	216.03528	-1034.6708
243	1.205	-718.47064	80.391594	-621.79224	-738.29559	84.412163	-566.0694	-520.94385	495.46732	-576.57275	-594.12604	481.95114	-509.31024	-598.5174	934.89453	-686.20782	-935.27051	979.04913	-715.03766	-1055.4749	487.548	-646.20886	-1110.8781	534.47888	-728.83478	-1005.8019	185.82124	-968.49146	-1080.2535	227.56841	-1023.7278
244	1.21	-718.40082	80.386147	-622.07697	-738.29907	84.76535	-566.25415	-520.03387	494.61899	-576.98816	-593.65771	481.6597	-510.43646	-593.44806	937.67877	-685.79694	-930.63147	982.0647	-707.54419	-1054.8932	484.44748	-659.84564	-1111.7812	539.99329	-710.69806	-1008.0071	195.1604	-958.41449	-1082.553	239.47662	-1011.984
245	1.215	-718.24921	80.305679	-622.32159	-738.44916	84.930038	-566.06622	-518.93024	494.0726	-577.03265	-593.8175	481.5358	-511.854	-588.17419	940.72211	-685.46637	-925.85876	985.20038	-699.91089	-1056.2096	497.31717	-610.89105	-1111.3191	545.7287	-693.66742	-1010.0403	205.81697	-947.32043	-1084.726	251.37698	-999.58289
246	1.22	-718.13531	80.362167	-622.59253	-737.7937	84.98719	-567.44568	-517.68079	493.71408	-577.07263	-593.89685	481.59216	-513.76324	-583.0672	943.69073	-685.76007	-920.91876	988.37128	-692.17993	-1053.8799	496.4046	-622.91486	-1110.9878	552.27734	-674.81427	-1011.912	217.25084	-935.75543	-1086.4365	264.10727	-986.56989
247	1.225	-717.98395	80.396835	-622.90784	-737.47583	85.605095	-567.24164	-516.73553	493.47943	-577.375	-594.28046	481.75323	-515.82013	-577.74695	946.87329	-686.21362	-915.90424	991.74963	-684.18561	-1044.9724	507.28525	-599.60931	-1110.3987	558.58386	-654.84326	-1013.1513	229.56831	-923.97656	-1088.067	277.07431	-973.1582
248	1.23	-717.8269	80.404022	-623.39282	-737.63556	85.480888	-567.18512	-515.99243	493.25006	-578.48798	-594.71637	482.04602	-518.02917	-572.4682	950.03302	-686.95081	-910.76978	995.40552	-676.073	-1034.8289	518.22833	-575.93359	-1108.811	565.07483	-635.18579	-1013.5402	242.88087	-911.93683	-1089.3624	291.42288	-959.49341
249	1.235	-717.63611	80.332932	-623.98224	-737.40344	85.799492	-567.74457	-515.63965	493.01813	-580.64661	-594.58612	481.87152	-522.76337	-567.16052	953.1579	-688.09619	-905.4046	999.0957	-667.58142	-1047.3962	522.18951	-540.7345	-1106.464	572.8017	-614.99207	-1013.326	258.29056	-899.91083	-1089.9382	306.27194	-945.45862
250	1.24	-717.49799	80.266594	-624.60638	-736.79535	86.006828	-569.78101	-515.53979	493.0145	-583.89856	-594.13916	482.93597	-524.13184	-561.94257	956.17505	-689.8205	-899.71021	1003.0338	-658.97223	-1041.4531	523.59375	-535.34314	-1103.5258	581.76544	-595.82166	-1012.0088	273.5336	-887.57001	-1089.5659	321.93933	-931.22858
